<svg xmlns="http://www.w3.org/2000/svg" xmlns:xlink="http://www.w3.org/1999/xlink" width="6912" zoomAndPan="magnify" viewBox="0 0 5184 2592.000001" height="3456" preserveAspectRatio="xMidYMid meet" version="1.0"><defs><filter x="0%" y="0%" width="100%" height="100%" id="id1"><feColorMatrix values="0 0 0 0 1 0 0 0 0 1 0 0 0 0 1 0 0 0 1 0" color-interpolation-filters="sRGB"/></filter><g/><clipPath id="id2"><path d="M 1 1485 L 1248 1485 L 1248 2591 L 1 2591 Z M 1 1485 " clip-rule="nonzero"/></clipPath><clipPath id="id3"><path d="M 1605 238 L 3497 238 L 3497 2455 L 1605 2455 Z M 1605 238 " clip-rule="nonzero"/></clipPath><clipPath id="id4"><path d="M 1335.386719 690.402344 L 3469.34375 236.683594 L 3848.222656 2018.648438 L 1714.265625 2472.367188 Z M 1335.386719 690.402344 " clip-rule="nonzero"/></clipPath><clipPath id="id5"><path d="M 1335.386719 690.402344 L 3469.34375 236.683594 L 3848.222656 2018.648438 L 1714.265625 2472.367188 Z M 1335.386719 690.402344 " clip-rule="nonzero"/></clipPath><clipPath id="id6"><path d="M 1335.386719 690.402344 L 3469.34375 236.683594 L 3848.222656 2018.648438 L 1714.265625 2472.367188 Z M 1335.386719 690.402344 " clip-rule="nonzero"/></clipPath><clipPath id="id7"><path d="M 3328 81 L 3544 81 L 3544 319 L 3328 319 Z M 3328 81 " clip-rule="nonzero"/></clipPath><clipPath id="id8"><path d="M 3298.121094 307.207031 L 3329.199219 80.664062 L 3555.738281 111.742188 L 3524.664062 338.28125 Z M 3298.121094 307.207031 " clip-rule="nonzero"/></clipPath><clipPath id="id9"><path d="M 3298.121094 307.207031 L 3329.199219 80.664062 L 3555.738281 111.742188 L 3524.664062 338.28125 Z M 3298.121094 307.207031 " clip-rule="nonzero"/></clipPath><mask id="id10"><g filter="url(#id1)"><rect x="-518.4" width="6220.8" fill="#000000" y="-259.2" height="3110.400001" fill-opacity="0.5765"/></g></mask><clipPath id="id11"><path d="M 1.238281 1 L 1336 1 L 1336 2021 L 1.238281 2021 Z M 1.238281 1 " clip-rule="nonzero"/></clipPath><clipPath id="id12"><path d="M 688 1 L 1336 1 L 1336 1332 L 688 1332 Z M 688 1 " clip-rule="nonzero"/></clipPath><clipPath id="id13"><rect x="0" width="1336" y="0" height="2028"/></clipPath></defs><g clip-path="url(#id2)"><path fill="#ffff8a" d="M 1120.457031 1968.53125 C 1344.535156 2477.675781 1254.816406 2999.636719 982.121094 3280.726562 C 709.425781 3561.816406 -63.136719 4113.832031 -702.667969 3109.683594 C -1342.199219 2105.539062 65.917969 1188.460938 698.375 1576.0625 C 1089.519531 1815.609375 1120.457031 1968.53125 1120.457031 1968.53125 Z M 1120.457031 1968.53125 " fill-opacity="1" fill-rule="nonzero"/></g><g clip-path="url(#id3)"><g clip-path="url(#id4)"><g clip-path="url(#id5)"><g clip-path="url(#id6)"><path fill="#ffcc00" d="M 3458.402344 239.007812 C 3453.097656 240.082031 3449.679688 245.238281 3450.738281 250.53125 C 3451.992188 256.886719 3453.21875 263.234375 3454.410156 269.621094 C 3455.390625 274.945312 3460.507812 278.449219 3465.832031 277.457031 C 3471.15625 276.476562 3474.660156 271.355469 3473.667969 266.035156 C 3472.460938 259.585938 3471.238281 253.125 3469.9375 246.671875 C 3468.863281 241.367188 3463.691406 237.9375 3458.402344 239.007812 Z M 3475.1875 335.472656 C 3469.835938 336.195312 3466.066406 341.125 3466.792969 346.488281 C 3467.660156 352.898438 3468.472656 359.320312 3469.234375 365.753906 C 3469.867188 371.125 3474.742188 374.972656 3480.109375 374.328125 C 3485.480469 373.699219 3489.328125 368.824219 3488.683594 363.453125 C 3487.910156 356.914062 3487.089844 350.382812 3486.199219 343.867188 C 3485.472656 338.5 3480.550781 334.746094 3475.1875 335.472656 Z M 3485.242188 432.871094 C 3479.84375 433.164062 3475.691406 437.785156 3476 443.183594 C 3476.347656 449.636719 3476.632812 456.101562 3476.847656 462.554688 C 3477.03125 467.964844 3481.570312 472.1875 3486.96875 472.007812 C 3492.378906 471.820312 3496.617188 467.292969 3496.433594 461.878906 C 3496.203125 455.28125 3495.921875 448.703125 3495.554688 442.117188 C 3495.261719 436.714844 3490.644531 432.578125 3485.242188 432.871094 Z M 3486.714844 530.769531 C 3481.304688 530.5 3476.714844 534.675781 3476.457031 540.082031 C 3476.15625 546.519531 3475.773438 552.949219 3475.300781 559.371094 C 3474.894531 564.78125 3478.957031 569.480469 3484.347656 569.863281 C 3489.746094 570.273438 3494.457031 566.210938 3494.84375 560.816406 C 3495.328125 554.214844 3495.71875 547.605469 3496.023438 541 C 3496.285156 535.605469 3492.109375 531.027344 3486.714844 530.769531 Z M 3477.15625 628.171875 C 3471.832031 627.207031 3466.734375 630.746094 3465.769531 636.070312 C 3464.621094 642.410156 3463.394531 648.714844 3462.046875 654.964844 C 3460.90625 660.253906 3464.28125 665.472656 3469.570312 666.609375 C 3474.863281 667.746094 3480.066406 664.378906 3481.203125 659.085938 C 3482.605469 652.578125 3483.867188 646.058594 3485.054688 639.558594 C 3486.019531 634.234375 3482.476562 629.136719 3477.15625 628.171875 Z M 3453.683594 723.148438 C 3448.605469 721.332031 3443 723.984375 3441.171875 729.066406 C 3439.007812 735.113281 3436.746094 741.097656 3434.351562 747.019531 C 3432.324219 752.027344 3434.753906 757.734375 3439.765625 759.773438 C 3444.789062 761.796875 3450.496094 759.355469 3452.519531 754.34375 C 3455.023438 748.140625 3457.355469 741.917969 3459.589844 735.691406 C 3461.433594 730.59375 3458.773438 724.976562 3453.683594 723.148438 Z M 3406.316406 811.328125 C 3403.800781 811.960938 3401.644531 813.5625 3400.3125 815.792969 C 3397.035156 821.277344 3393.617188 826.679688 3390.101562 832.007812 C 3387.128906 836.519531 3388.378906 842.597656 3392.886719 845.574219 C 3397.398438 848.558594 3403.480469 847.308594 3406.453125 842.796875 C 3410.140625 837.226562 3413.6875 831.589844 3417.117188 825.851562 C 3419.882812 821.207031 3418.367188 815.195312 3413.722656 812.417969 C 3411.492188 811.082031 3408.832031 810.695312 3406.316406 811.328125 Z M 3349.621094 889.183594 C 3347.023438 889.28125 3344.570312 890.410156 3342.796875 892.316406 C 3338.453125 897.007812 3334.023438 901.605469 3329.476562 906.105469 C 3325.636719 909.914062 3325.621094 916.128906 3329.429688 919.96875 C 3333.25 923.792969 3339.4375 923.816406 3343.277344 920.003906 C 3348.003906 915.316406 3352.640625 910.519531 3357.164062 905.640625 C 3360.84375 901.671875 3360.605469 895.484375 3356.648438 891.800781 C 3354.742188 890.039062 3352.226562 889.097656 3349.621094 889.183594 Z M 3270.992188 955.875 C 3265.820312 959.652344 3260.578125 963.347656 3255.261719 966.960938 C 3250.789062 969.996094 3249.625 976.078125 3252.660156 980.554688 C 3255.695312 985.027344 3261.78125 986.203125 3266.253906 983.167969 C 3271.75 979.433594 3277.191406 975.628906 3282.550781 971.699219 C 3286.921875 968.507812 3287.867188 962.375 3284.660156 958.007812 C 3281.484375 953.644531 3275.363281 952.683594 3270.992188 955.875 Z M 2331.757812 1182.066406 C 2325.359375 1183.507812 2318.964844 1184.980469 2312.578125 1186.476562 C 2307.3125 1187.734375 2304.0625 1193.003906 2305.304688 1198.273438 C 2306.5625 1203.527344 2311.820312 1206.78125 2317.078125 1205.554688 C 2323.410156 1204.054688 2329.722656 1202.601562 2336.058594 1201.1875 C 2341.335938 1199.996094 2344.652344 1194.75 2343.460938 1189.472656 C 2342.285156 1184.203125 2337.039062 1180.886719 2331.757812 1182.066406 Z M 2408.828125 1166.230469 C 2403.507812 1167.238281 2400.019531 1172.367188 2401.023438 1177.6875 C 2402.042969 1183.003906 2407.175781 1186.492188 2412.488281 1185.472656 C 2418.832031 1184.277344 2425.207031 1183.128906 2431.617188 1182 C 2436.9375 1181.0625 2440.507812 1175.984375 2439.566406 1170.652344 C 2438.625 1165.320312 2433.550781 1161.761719 2428.230469 1162.6875 C 2421.78125 1163.824219 2415.300781 1165.007812 2408.828125 1166.230469 Z M 2236.324219 1206.136719 C 2230.011719 1207.910156 2223.6875 1209.707031 2217.378906 1211.574219 C 2212.199219 1213.101562 2209.230469 1218.550781 2210.761719 1223.730469 C 2212.289062 1228.910156 2217.722656 1231.878906 2222.90625 1230.363281 C 2229.125 1228.53125 2235.355469 1226.75 2241.617188 1224.992188 C 2246.828125 1223.539062 2249.855469 1218.121094 2248.390625 1212.914062 C 2246.925781 1207.71875 2241.535156 1204.683594 2236.324219 1206.136719 Z M 2505.882812 1150.191406 C 2500.527344 1150.945312 2496.796875 1155.917969 2497.5625 1161.273438 C 2498.316406 1166.632812 2503.285156 1170.347656 2508.640625 1169.582031 L 2521.242188 1167.785156 L 2527.984375 1166.863281 C 2533.347656 1166.125 2537.085938 1161.191406 2536.363281 1155.839844 C 2535.621094 1150.476562 2530.6875 1146.738281 2525.324219 1147.464844 L 2518.527344 1148.398438 Z M 3188.851562 1006.136719 C 3183.128906 1009.066406 3177.363281 1011.933594 3171.550781 1014.699219 C 3166.679688 1017.03125 3164.609375 1022.867188 3166.929688 1027.742188 C 3169.265625 1032.625 3175.109375 1034.679688 3179.984375 1032.363281 C 3185.960938 1029.519531 3191.902344 1026.585938 3197.796875 1023.550781 C 3202.613281 1021.078125 3204.503906 1015.1875 3202.03125 1010.371094 C 3199.558594 1005.558594 3193.667969 1003.664062 3188.851562 1006.136719 Z M 2142.316406 1235.605469 C 2136.109375 1237.765625 2129.902344 1239.96875 2123.714844 1242.222656 C 2118.648438 1244.074219 2116.023438 1249.707031 2117.890625 1254.789062 C 2119.742188 1259.859375 2125.375 1262.484375 2130.457031 1260.617188 C 2136.539062 1258.398438 2142.644531 1256.230469 2148.757812 1254.101562 C 2153.859375 1252.328125 2156.5625 1246.746094 2154.785156 1241.632812 C 2153.011719 1236.53125 2147.429688 1233.828125 2142.316406 1235.605469 Z M 2603.375 1137.949219 C 2597.996094 1138.527344 2594.109375 1143.351562 2594.6875 1148.734375 C 2595.253906 1154.121094 2600.082031 1158.007812 2605.460938 1157.425781 L 2612.636719 1156.648438 L 2624.898438 1155.40625 C 2630.289062 1154.851562 2634.203125 1150.046875 2633.652344 1144.660156 C 2633.101562 1139.269531 2628.292969 1135.355469 2622.90625 1135.90625 L 2610.59375 1137.171875 Z M 2700.714844 1127.640625 C 2695.335938 1128.234375 2691.46875 1133.082031 2692.078125 1138.472656 C 2692.679688 1143.835938 2697.53125 1147.703125 2702.90625 1147.097656 C 2709.414062 1146.363281 2715.917969 1145.601562 2722.429688 1144.824219 C 2727.796875 1144.179688 2731.632812 1139.308594 2730.984375 1133.925781 C 2730.339844 1128.570312 2725.46875 1124.738281 2720.097656 1125.367188 C 2713.644531 1126.148438 2707.179688 1126.902344 2700.714844 1127.640625 Z M 3100.179688 1044.679688 C 3094.128906 1046.90625 3088.039062 1049.082031 3081.929688 1051.183594 C 3076.8125 1052.933594 3074.09375 1058.503906 3075.855469 1063.621094 C 3077.605469 1068.742188 3083.191406 1071.457031 3088.308594 1069.695312 C 3094.542969 1067.542969 3100.765625 1065.335938 3106.957031 1063.050781 C 3112.035156 1061.171875 3114.617188 1055.546875 3112.753906 1050.476562 C 3110.875 1045.398438 3105.246094 1042.804688 3100.179688 1044.679688 Z M 2050.414062 1271.355469 C 2044.359375 1273.96875 2038.335938 1276.65625 2032.347656 1279.367188 C 2027.425781 1281.597656 2025.25 1287.386719 2027.46875 1292.308594 C 2029.6875 1297.234375 2035.492188 1299.421875 2040.414062 1297.199219 C 2046.316406 1294.523438 2052.242188 1291.898438 2058.183594 1289.339844 C 2063.148438 1287.195312 2065.425781 1281.425781 2063.28125 1276.457031 C 2061.136719 1271.492188 2055.378906 1269.210938 2050.414062 1271.355469 Z M 2797.546875 1115.277344 C 2792.195312 1116.054688 2788.492188 1121.023438 2789.265625 1126.363281 C 2790.035156 1131.71875 2794.992188 1135.441406 2800.347656 1134.671875 C 2806.800781 1133.742188 2813.292969 1132.804688 2819.8125 1131.804688 C 2825.144531 1130.988281 2828.8125 1126 2827.996094 1120.652344 C 2827.1875 1115.304688 2822.199219 1111.632812 2816.855469 1112.453125 C 2810.453125 1113.429688 2804.015625 1114.355469 2797.546875 1115.277344 Z M 3007.613281 1073.800781 C 3001.367188 1075.5 2995.121094 1077.132812 2988.871094 1078.695312 C 2983.617188 1080.003906 2980.429688 1085.320312 2981.738281 1090.574219 C 2983.046875 1095.8125 2988.351562 1099.019531 2993.605469 1097.707031 C 3000.023438 1096.109375 3006.402344 1094.4375 3012.753906 1092.710938 C 3017.984375 1091.296875 3021.0625 1085.910156 3019.648438 1080.691406 C 3018.234375 1075.472656 3012.847656 1072.382812 3007.613281 1073.800781 Z M 2893.800781 1099.472656 C 2888.476562 1100.453125 2884.96875 1105.558594 2885.960938 1110.882812 C 2886.9375 1116.191406 2892.046875 1119.714844 2897.359375 1118.738281 C 2903.863281 1117.535156 2910.3125 1116.261719 2916.730469 1114.976562 C 2922.019531 1113.910156 2925.453125 1108.761719 2924.410156 1103.464844 C 2923.347656 1098.160156 2918.203125 1094.714844 2912.890625 1095.761719 C 2906.511719 1097.035156 2900.144531 1098.292969 2893.800781 1099.472656 Z M 1961.554688 1314.480469 C 1955.742188 1317.632812 1949.992188 1320.828125 1944.257812 1324.101562 C 1939.558594 1326.773438 1937.917969 1332.75 1940.585938 1337.453125 C 1943.273438 1342.167969 1949.261719 1343.792969 1953.960938 1341.109375 C 1959.570312 1337.902344 1965.207031 1334.769531 1970.886719 1331.699219 C 1975.636719 1329.117188 1977.398438 1323.183594 1974.828125 1318.429688 C 1972.242188 1313.667969 1966.308594 1311.910156 1961.554688 1314.480469 Z M 1877.21875 1366.199219 C 1871.769531 1369.96875 1866.375 1373.792969 1861.023438 1377.703125 C 1856.667969 1380.90625 1855.722656 1387.023438 1858.914062 1391.394531 C 1862.117188 1395.75 1868.234375 1396.699219 1872.605469 1393.507812 C 1877.800781 1389.699219 1883.035156 1385.976562 1888.332031 1382.328125 C 1892.796875 1379.253906 1893.910156 1373.136719 1890.824219 1368.6875 C 1887.757812 1364.25 1881.671875 1363.144531 1877.21875 1366.199219 Z M 1806.53125 1425.21875 C 1803.9375 1425.09375 1801.398438 1426.003906 1799.480469 1427.75 C 1794.5625 1432.203125 1789.714844 1436.710938 1784.941406 1441.328125 C 1781.035156 1445.082031 1780.933594 1451.285156 1784.699219 1455.175781 C 1788.453125 1459.070312 1794.640625 1459.175781 1798.535156 1455.421875 C 1803.160156 1450.960938 1807.871094 1446.582031 1812.636719 1442.257812 C 1816.640625 1438.632812 1816.9375 1432.441406 1813.308594 1428.425781 C 1811.5625 1426.492188 1809.121094 1425.34375 1806.53125 1425.21875 Z M 1731.195312 1499.945312 C 1727.019531 1505.109375 1722.949219 1510.347656 1718.972656 1515.664062 C 1715.710938 1519.984375 1716.589844 1526.132812 1720.921875 1529.378906 C 1725.257812 1532.636719 1731.40625 1531.757812 1734.648438 1527.425781 C 1738.496094 1522.289062 1742.425781 1517.21875 1746.457031 1512.222656 C 1749.835938 1508.011719 1749.175781 1501.847656 1744.964844 1498.464844 C 1740.75 1495.054688 1734.585938 1495.71875 1731.195312 1499.945312 Z M 1681.59375 1577.878906 C 1679.097656 1578.601562 1676.984375 1580.277344 1675.730469 1582.546875 C 1672.511719 1588.375 1669.394531 1594.28125 1666.410156 1600.230469 C 1664.003906 1605.058594 1665.941406 1610.9375 1670.773438 1613.359375 C 1675.609375 1615.796875 1681.5 1613.839844 1683.921875 1609.007812 C 1686.789062 1603.277344 1689.777344 1597.605469 1692.867188 1592.023438 C 1695.472656 1587.289062 1693.765625 1581.332031 1689.042969 1578.722656 C 1686.761719 1577.453125 1684.078125 1577.15625 1681.582031 1577.878906 Z M 1648.242188 1667.601562 C 1643.117188 1665.878906 1637.550781 1668.632812 1635.828125 1673.773438 C 1633.707031 1680.089844 1631.730469 1686.429688 1629.855469 1692.789062 C 1628.324219 1697.984375 1631.289062 1703.425781 1636.46875 1704.957031 C 1641.652344 1706.492188 1647.105469 1703.523438 1648.640625 1698.339844 C 1650.445312 1692.175781 1652.363281 1686.070312 1654.398438 1680.007812 C 1656.125 1674.882812 1653.355469 1669.328125 1648.242188 1667.601562 Z M 1623.835938 1762.335938 C 1618.492188 1761.527344 1613.492188 1765.199219 1612.679688 1770.546875 C 1611.671875 1777.09375 1610.785156 1783.683594 1610.011719 1790.304688 C 1609.402344 1795.679688 1613.25 1800.53125 1618.609375 1801.15625 C 1624 1801.777344 1628.863281 1797.929688 1629.476562 1792.554688 C 1630.207031 1786.203125 1631.089844 1779.835938 1632.054688 1773.476562 C 1632.851562 1768.132812 1629.183594 1763.144531 1623.835938 1762.335938 Z M 1615.238281 1859.796875 C 1609.835938 1859.757812 1605.410156 1864.121094 1605.390625 1869.535156 C 1605.347656 1876.222656 1605.488281 1882.84375 1605.640625 1889.40625 L 1605.65625 1889.484375 C 1605.828125 1894.898438 1610.363281 1899.148438 1615.777344 1898.976562 C 1621.171875 1898.796875 1625.410156 1894.265625 1625.242188 1888.867188 L 1625.257812 1888.945312 C 1625.09375 1882.453125 1624.96875 1876.023438 1625.007812 1869.65625 C 1625.042969 1864.238281 1620.683594 1859.824219 1615.265625 1859.789062 Z M 1620.253906 1957.546875 C 1614.890625 1958.207031 1611.074219 1963.101562 1611.746094 1968.464844 C 1612.542969 1975.015625 1613.445312 1981.582031 1614.441406 1988.160156 C 1615.246094 1993.507812 1620.25 1997.175781 1625.59375 1996.355469 C 1630.957031 1995.5625 1634.636719 1990.542969 1633.816406 1985.1875 C 1632.839844 1978.851562 1631.992188 1972.464844 1631.195312 1966.054688 C 1630.523438 1960.675781 1625.617188 1956.878906 1620.253906 1957.546875 Z M 1636.609375 2054.0625 C 1631.328125 2055.253906 1628.027344 2060.496094 1629.21875 2065.773438 C 1630.699219 2072.277344 1632.265625 2078.675781 1633.847656 2085.019531 C 1635.144531 2090.261719 1640.449219 2093.480469 1645.703125 2092.167969 C 1650.960938 2090.871094 1654.164062 2085.554688 1652.863281 2080.296875 C 1651.296875 2073.96875 1649.742188 2067.6875 1648.324219 2061.464844 C 1647.140625 2056.167969 1641.882812 2052.859375 1636.609375 2054.0625 Z M 1661.960938 2148.636719 C 1656.800781 2150.269531 1653.941406 2155.761719 1655.574219 2160.921875 C 1657.574219 2167.214844 1659.640625 2173.496094 1661.757812 2179.738281 C 1663.507812 2184.855469 1669.070312 2187.59375 1674.191406 2185.855469 C 1679.308594 2184.105469 1682.046875 2178.542969 1680.308594 2173.421875 C 1678.21875 2167.296875 1676.195312 2161.144531 1674.238281 2154.992188 C 1672.59375 2149.851562 1667.101562 2147.003906 1661.960938 2148.636719 Z M 1694.519531 2240.972656 C 1689.480469 2242.96875 1687.019531 2248.652344 1689 2253.683594 C 1691.417969 2259.804688 1693.898438 2265.898438 1696.4375 2271.996094 C 1698.519531 2276.976562 1704.238281 2279.347656 1709.234375 2277.277344 C 1714.226562 2275.195312 1716.582031 2269.464844 1714.511719 2264.46875 C 1712.019531 2258.515625 1709.609375 2252.515625 1707.222656 2246.480469 C 1705.230469 2241.457031 1699.546875 2238.992188 1694.519531 2240.972656 Z M 1732.894531 2331.066406 C 1727.980469 2333.339844 1725.839844 2339.160156 1728.113281 2344.074219 C 1730.875 2350.054688 1733.695312 2355.992188 1736.542969 2361.914062 C 1738.886719 2366.785156 1744.734375 2368.839844 1749.613281 2366.488281 C 1754.480469 2364.132812 1756.523438 2358.300781 1754.191406 2353.429688 C 1751.371094 2347.570312 1748.609375 2341.714844 1745.898438 2335.847656 C 1743.628906 2330.9375 1737.804688 2328.792969 1732.894531 2331.066406 Z M 1775.957031 2419.019531 C 1771.167969 2421.539062 1769.335938 2427.449219 1771.84375 2432.242188 L 1774.769531 2437.828125 L 1781.054688 2449.601562 C 1783.597656 2454.359375 1789.511719 2456.164062 1794.285156 2453.628906 C 1799.058594 2451.085938 1800.863281 2445.167969 1798.328125 2440.394531 L 1792.082031 2428.667969 L 1789.183594 2423.132812 C 1786.671875 2418.339844 1780.75 2416.496094 1775.957031 2419.019531 Z M 1775.957031 2419.019531 " fill-opacity="1" fill-rule="nonzero"/></g></g></g></g><g clip-path="url(#id7)"><g clip-path="url(#id8)"><g clip-path="url(#id9)"><path fill="#f4d800" d="M 3329.917969 82.640625 C 3329.738281 82.804688 3329.601562 83 3329.441406 83.191406 C 3329.074219 83.730469 3328.832031 84.316406 3328.75 84.917969 C 3328.699219 85.289062 3328.683594 85.609375 3328.71875 85.933594 C 3328.714844 85.960938 3328.71875 85.933594 3328.71875 85.933594 C 3328.722656 86.09375 3328.75 86.285156 3328.808594 86.457031 L 3379.757812 315.722656 C 3380.101562 317.324219 3381.382812 318.546875 3382.976562 318.847656 C 3384.570312 319.144531 3386.21875 318.460938 3387.128906 317.109375 L 3443.984375 232.105469 L 3541.160156 200.242188 C 3542.648438 199.746094 3543.707031 198.472656 3543.921875 196.921875 C 3543.925781 196.867188 3543.9375 196.789062 3543.945312 196.734375 C 3544.085938 195.121094 3543.253906 193.558594 3541.804688 192.796875 L 3334.703125 81.957031 C 3334.683594 81.925781 3334.703125 81.957031 3334.703125 81.957031 C 3333.929688 81.554688 3333.0625 81.410156 3332.214844 81.535156 C 3331.96875 81.582031 3331.722656 81.628906 3331.464844 81.726562 C 3330.882812 81.886719 3330.351562 82.21875 3329.917969 82.640625 Z M 3385.648438 304.628906 L 3340.816406 102.875 L 3436.367188 228.808594 Z M 3529.539062 195.457031 L 3442.859375 223.882812 L 3347.308594 97.945312 Z M 3529.539062 195.457031 " fill-opacity="1" fill-rule="nonzero"/></g></g></g><g mask="url(#id10)"><g transform="matrix(1, 0, 0, 1, 3847, -0.000000000000208807)"><g clip-path="url(#id13)"><g clip-path="url(#id11)"><path fill="#ffde59" d="M 2010.925781 2020.855469 C 2010.925781 2020.855469 1525.066406 1998.148438 1288.019531 1652.445312 C 1064.1875 1326.039062 1241.386719 841.011719 700.382812 710.449219 C 159.378906 579.886719 0.914062 1.601562 0.914062 1.601562 L 2015.546875 1.601562 Z M 2010.925781 2020.855469 " fill-opacity="1" fill-rule="nonzero"/></g><g clip-path="url(#id12)"><path fill="#ffff8a" d="M 2012.464844 1331.714844 C 2012.464844 1331.714844 1692.535156 1316.710938 1536.339844 1089 C 1388.902344 874.015625 1505.605469 554.503906 1149.261719 468.542969 C 792.914062 382.585938 688.542969 1.601562 688.542969 1.601562 L 2015.546875 1.601562 Z M 2012.464844 1331.714844 " fill-opacity="1" fill-rule="nonzero"/></g></g></g></g><g fill="#000000" fill-opacity="1"><g transform="translate(957.684262, 1386.381262)"><g><path d="M 130.28125 -206.992188 L 156.460938 -154.636719 L 162.550781 -154.636719 L 162.550781 -213.078125 L 73.664062 -213.078125 C 36.527344 -213.078125 12.175781 -188.726562 12.175781 -153.417969 C 12.175781 -118.714844 28.613281 -98.625 60.269531 -91.320312 L 96.191406 -82.796875 C 120.542969 -77.316406 132.71875 -65.75 132.71875 -42.617188 C 132.71875 -18.265625 115.671875 -6.089844 93.144531 -6.089844 L 52.355469 -6.089844 L 26.179688 -58.445312 L 20.089844 -58.445312 L 20.089844 0 L 116.28125 0 C 153.417969 0 177.769531 -24.351562 177.769531 -59.664062 C 177.769531 -94.363281 161.941406 -114.453125 130.28125 -121.757812 L 93.753906 -130.28125 C 69.402344 -135.761719 57.226562 -147.328125 57.226562 -170.464844 C 57.226562 -194.816406 74.882812 -206.992188 97.40625 -206.992188 Z M 130.28125 -206.992188 "/></g></g></g><g fill="#000000" fill-opacity="1"><g transform="translate(1145.193859, 1386.381262)"><g><path d="M 10.957031 -152.808594 L 37.136719 -206.992188 L 66.359375 -206.992188 L 66.359375 -8.21875 L 48.703125 -6.089844 L 48.703125 0 L 129.675781 0 L 129.675781 -6.089844 L 112.019531 -8.21875 L 112.019531 -206.992188 L 140.632812 -206.992188 L 167.417969 -152.808594 L 173.507812 -152.808594 L 173.507812 -213.078125 L 4.871094 -213.078125 L 4.871094 -152.808594 Z M 10.957031 -152.808594 "/></g></g></g><g fill="#000000" fill-opacity="1"><g transform="translate(1322.353884, 1386.381262)"><g><path d="M 91.320312 -213.078125 L 84.621094 -213.078125 L 23.132812 -7.609375 L 4.871094 -6.089844 L 4.871094 0 L 46.878906 0 L 46.878906 -6.089844 L 29.832031 -7.609375 L 51.445312 -80.363281 L 124.804688 -80.363281 L 146.113281 -7.914062 L 130.28125 -6.089844 L 130.28125 0 L 213.6875 0 L 213.6875 -6.089844 L 194.816406 -8.21875 L 133.328125 -213.078125 Z M 88.882812 -203.339844 L 89.492188 -200.292969 L 122.976562 -86.449219 L 53.269531 -86.449219 L 87.667969 -200.292969 Z M 88.882812 -203.339844 "/></g></g></g><g fill="#000000" fill-opacity="1"><g transform="translate(1539.694525, 1386.381262)"><g><path d="M 4.871094 -206.992188 L 22.527344 -204.859375 L 22.527344 -8.21875 L 4.871094 -6.089844 L 4.871094 0 L 85.839844 0 L 85.839844 -6.089844 L 67.578125 -8.21875 L 67.578125 -80.363281 L 105.019531 -80.363281 L 143.675781 -8.21875 L 127.238281 -6.089844 L 127.238281 0 L 213.078125 0 L 213.078125 -6.089844 L 192.988281 -8.21875 L 151.589844 -85.839844 C 174.421875 -94.667969 188.117188 -114.453125 188.117188 -146.71875 C 188.117188 -192.988281 160.722656 -213.078125 118.105469 -213.078125 L 4.871094 -213.078125 Z M 67.578125 -206.992188 L 90.710938 -206.992188 C 121.152344 -206.992188 143.066406 -192.378906 143.066406 -146.71875 C 143.066406 -101.058594 119.324219 -86.449219 90.710938 -86.449219 L 67.578125 -86.449219 Z M 67.578125 -206.992188 "/></g></g></g><g fill="#000000" fill-opacity="1"><g transform="translate(1755.817628, 1386.381262)"><g/></g></g><g fill="#000000" fill-opacity="1"><g transform="translate(1835.570069, 1386.381262)"><g><path d="M 72.144531 -205.164062 L 89.492188 -206.992188 L 89.492188 -213.078125 L 4.871094 -213.078125 L 4.871094 -206.992188 L 23.4375 -204.859375 L 85.230469 -60.878906 L 85.230469 -8.21875 L 67.578125 -6.089844 L 67.578125 0 L 148.546875 0 L 148.546875 -6.089844 L 130.28125 -8.21875 L 130.28125 -60.878906 L 192.988281 -205.46875 L 211.253906 -206.992188 L 211.253906 -213.078125 L 169.246094 -213.078125 L 169.246094 -206.992188 L 186.292969 -205.46875 L 129.066406 -73.054688 Z M 72.144531 -205.164062 "/></g></g></g><g fill="#000000" fill-opacity="1"><g transform="translate(2051.084287, 1386.381262)"><g><path d="M 118.105469 -216.125 C 52.355469 -216.125 12.175781 -174.726562 12.175781 -106.539062 C 12.175781 -38.355469 52.355469 3.042969 118.105469 3.042969 C 183.855469 3.042969 224.648438 -38.355469 224.648438 -106.539062 C 224.648438 -174.726562 183.855469 -216.125 118.105469 -216.125 Z M 118.105469 -210.035156 C 152.808594 -210.035156 172.289062 -182.640625 172.289062 -106.539062 C 172.289062 -30.441406 152.808594 -3.042969 118.105469 -3.042969 C 83.40625 -3.042969 64.53125 -31.046875 64.53125 -106.539062 C 64.53125 -182.640625 83.40625 -210.035156 118.105469 -210.035156 Z M 118.105469 -210.035156 "/></g></g></g><g fill="#000000" fill-opacity="1"><g transform="translate(2287.297594, 1386.381262)"><g><path d="M 4.871094 -206.992188 L 22.527344 -204.859375 L 22.527344 -60.878906 C 22.527344 -27.394531 49.921875 0 83.40625 0 L 221.601562 0 L 221.601562 -6.089844 L 203.339844 -8.21875 L 203.339844 -204.859375 L 221.601562 -206.992188 L 221.601562 -213.078125 L 140.023438 -213.078125 L 140.023438 -206.992188 L 157.679688 -204.859375 L 157.679688 -6.089844 L 116.28125 -6.089844 C 88.882812 -6.089844 67.578125 -27.394531 67.578125 -54.792969 L 67.578125 -213.078125 L 4.871094 -213.078125 Z M 4.871094 -206.992188 "/></g></g></g><g fill="#000000" fill-opacity="1"><g transform="translate(2512.552586, 1386.381262)"><g><path d="M 4.871094 -206.992188 L 22.527344 -204.859375 L 22.527344 -8.21875 L 4.871094 -6.089844 L 4.871094 0 L 85.839844 0 L 85.839844 -6.089844 L 67.578125 -8.21875 L 67.578125 -80.363281 L 105.019531 -80.363281 L 143.675781 -8.21875 L 127.238281 -6.089844 L 127.238281 0 L 213.078125 0 L 213.078125 -6.089844 L 192.988281 -8.21875 L 151.589844 -85.839844 C 174.421875 -94.667969 188.117188 -114.453125 188.117188 -146.71875 C 188.117188 -192.988281 160.722656 -213.078125 118.105469 -213.078125 L 4.871094 -213.078125 Z M 67.578125 -206.992188 L 90.710938 -206.992188 C 121.152344 -206.992188 143.066406 -192.378906 143.066406 -146.71875 C 143.066406 -101.058594 119.324219 -86.449219 90.710938 -86.449219 L 67.578125 -86.449219 Z M 67.578125 -206.992188 "/></g></g></g><g fill="#000000" fill-opacity="1"><g transform="translate(2728.675631, 1386.381262)"><g/></g></g><g fill="#000000" fill-opacity="1"><g transform="translate(2808.428072, 1386.381262)"><g><path d="M 130.28125 -206.992188 L 156.460938 -154.636719 L 162.550781 -154.636719 L 162.550781 -213.078125 L 73.664062 -213.078125 C 36.527344 -213.078125 12.175781 -188.726562 12.175781 -153.417969 C 12.175781 -118.714844 28.613281 -98.625 60.269531 -91.320312 L 96.191406 -82.796875 C 120.542969 -77.316406 132.71875 -65.75 132.71875 -42.617188 C 132.71875 -18.265625 115.671875 -6.089844 93.144531 -6.089844 L 52.355469 -6.089844 L 26.179688 -58.445312 L 20.089844 -58.445312 L 20.089844 0 L 116.28125 0 C 153.417969 0 177.769531 -24.351562 177.769531 -59.664062 C 177.769531 -94.363281 161.941406 -114.453125 130.28125 -121.757812 L 93.753906 -130.28125 C 69.402344 -135.761719 57.226562 -147.328125 57.226562 -170.464844 C 57.226562 -194.816406 74.882812 -206.992188 97.40625 -206.992188 Z M 130.28125 -206.992188 "/></g></g></g><g fill="#000000" fill-opacity="1"><g transform="translate(2995.937622, 1386.381262)"><g><path d="M 10.957031 -152.808594 L 37.136719 -206.992188 L 66.359375 -206.992188 L 66.359375 -8.21875 L 48.703125 -6.089844 L 48.703125 0 L 129.675781 0 L 129.675781 -6.089844 L 112.019531 -8.21875 L 112.019531 -206.992188 L 140.632812 -206.992188 L 167.417969 -152.808594 L 173.507812 -152.808594 L 173.507812 -213.078125 L 4.871094 -213.078125 L 4.871094 -152.808594 Z M 10.957031 -152.808594 "/></g></g></g><g fill="#000000" fill-opacity="1"><g transform="translate(3173.097685, 1386.381262)"><g><path d="M 91.320312 -213.078125 L 84.621094 -213.078125 L 23.132812 -7.609375 L 4.871094 -6.089844 L 4.871094 0 L 46.878906 0 L 46.878906 -6.089844 L 29.832031 -7.609375 L 51.445312 -80.363281 L 124.804688 -80.363281 L 146.113281 -7.914062 L 130.28125 -6.089844 L 130.28125 0 L 213.6875 0 L 213.6875 -6.089844 L 194.816406 -8.21875 L 133.328125 -213.078125 Z M 88.882812 -203.339844 L 89.492188 -200.292969 L 122.976562 -86.449219 L 53.269531 -86.449219 L 87.667969 -200.292969 Z M 88.882812 -203.339844 "/></g></g></g><g fill="#000000" fill-opacity="1"><g transform="translate(3390.43827, 1386.381262)"><g><path d="M 4.871094 -206.992188 L 22.527344 -204.859375 L 22.527344 -8.21875 L 4.871094 -6.089844 L 4.871094 0 L 85.839844 0 L 85.839844 -6.089844 L 67.578125 -8.21875 L 67.578125 -80.363281 L 105.019531 -80.363281 L 143.675781 -8.21875 L 127.238281 -6.089844 L 127.238281 0 L 213.078125 0 L 213.078125 -6.089844 L 192.988281 -8.21875 L 151.589844 -85.839844 C 174.421875 -94.667969 188.117188 -114.453125 188.117188 -146.71875 C 188.117188 -192.988281 160.722656 -213.078125 118.105469 -213.078125 L 4.871094 -213.078125 Z M 67.578125 -206.992188 L 90.710938 -206.992188 C 121.152344 -206.992188 143.066406 -192.378906 143.066406 -146.71875 C 143.066406 -101.058594 119.324219 -86.449219 90.710938 -86.449219 L 67.578125 -86.449219 Z M 67.578125 -206.992188 "/></g></g></g><g fill="#000000" fill-opacity="1"><g transform="translate(3606.561429, 1386.381262)"><g><path d="M 10.957031 -152.808594 L 37.136719 -206.992188 L 66.359375 -206.992188 L 66.359375 -8.21875 L 48.703125 -6.089844 L 48.703125 0 L 129.675781 0 L 129.675781 -6.089844 L 112.019531 -8.21875 L 112.019531 -206.992188 L 140.632812 -206.992188 L 167.417969 -152.808594 L 173.507812 -152.808594 L 173.507812 -213.078125 L 4.871094 -213.078125 L 4.871094 -152.808594 Z M 10.957031 -152.808594 "/></g></g></g><g fill="#000000" fill-opacity="1"><g transform="translate(3783.721492, 1386.381262)"><g><path d="M 4.871094 -206.992188 L 22.527344 -204.859375 L 22.527344 -60.878906 C 22.527344 -27.394531 49.921875 0 83.40625 0 L 221.601562 0 L 221.601562 -6.089844 L 203.339844 -8.21875 L 203.339844 -204.859375 L 221.601562 -206.992188 L 221.601562 -213.078125 L 140.023438 -213.078125 L 140.023438 -206.992188 L 157.679688 -204.859375 L 157.679688 -6.089844 L 116.28125 -6.089844 C 88.882812 -6.089844 67.578125 -27.394531 67.578125 -54.792969 L 67.578125 -213.078125 L 4.871094 -213.078125 Z M 4.871094 -206.992188 "/></g></g></g><g fill="#000000" fill-opacity="1"><g transform="translate(4008.976484, 1386.381262)"><g><path d="M 4.871094 -206.992188 L 22.527344 -204.859375 L 22.527344 -8.21875 L 4.871094 -6.089844 L 4.871094 0 L 85.839844 0 L 85.839844 -6.089844 L 67.578125 -8.21875 L 67.578125 -65.75 L 133.328125 -65.75 C 177.160156 -65.75 205.773438 -87.667969 205.773438 -139.414062 C 205.773438 -191.164062 177.160156 -213.078125 133.328125 -213.078125 L 4.871094 -213.078125 Z M 67.578125 -206.992188 L 105.929688 -206.992188 C 137.589844 -206.992188 160.722656 -191.164062 160.722656 -139.414062 C 160.722656 -87.667969 135.761719 -71.839844 105.929688 -71.839844 L 67.578125 -71.839844 Z M 67.578125 -206.992188 "/></g></g></g></svg>